# Blender 4.3.2
# www.blender.org
mtllib PresentBox.mtl
o Present
v -1.000000 0.000000 -1.000000
v -1.028722 1.558990 -1.038441
v 1.000000 0.000000 -1.000000
v 1.012868 1.540235 -1.047411
v -1.000000 0.000000 1.000000
v -1.037692 1.556887 1.045929
v 1.000000 0.000000 1.000000
v 1.003898 1.538131 1.036959
v -1.015513 0.555078 -1.036959
v 1.026077 0.555078 -1.045929
v 1.017107 0.555078 1.038441
v -1.024483 0.555078 1.047411
v 1.000000 0.555078 -1.000000
v 1.000000 0.555078 1.000000
v -1.000000 0.555078 1.000000
v -1.000000 0.555078 -1.000000
v -0.111980 0.000000 -1.000000
v -0.114403 1.550663 -1.042423
v -0.111980 0.000000 1.000000
v -0.123373 1.548559 1.041946
v -0.108870 0.555078 1.043428
v -0.108870 0.555078 -1.040942
v -0.108870 0.555078 -1.000000
v -0.108870 0.555078 1.000000
v 0.111470 1.548550 -1.043434
v 0.113284 0.000000 1.000000
v 0.116697 0.555078 -1.041952
v 0.116697 0.555078 -1.000000
v 0.113284 0.000000 -1.000000
v 0.102500 1.546446 1.040936
v 0.116697 0.555078 1.042418
v 0.116697 0.555078 1.000000
v 1.000000 0.000000 0.101110
v 1.007930 1.539076 0.100149
v -1.000000 0.000000 0.101110
v -1.033661 1.557832 0.109119
v -1.020452 0.555078 0.103607
v 1.021139 0.555078 0.103607
v 1.000000 0.555078 0.103607
v -1.000000 0.555078 0.103607
v -0.119341 1.549504 0.105137
v -0.111980 0.000000 0.101110
v 0.113284 0.000000 0.101110
v 0.106532 1.547392 0.104126
v 1.000000 0.000000 -0.105692
v -1.032733 1.558050 -0.106407
v -1.019524 0.555078 -0.107553
v -1.000000 0.555078 -0.107553
v -0.111980 0.000000 -0.105692
v 0.113284 0.000000 -0.105692
v 1.008857 1.539294 -0.115377
v -1.000000 0.000000 -0.105692
v 1.022066 0.555078 -0.107553
v 1.000000 0.555078 -0.107553
v -0.118413 1.549722 -0.110389
v 0.107459 1.547609 -0.111400
v 0.113284 -0.021263 -1.021263
v -0.111980 -0.021263 -1.021263
v 0.102794 1.567620 1.062286
v -0.123078 1.569921 1.063108
v -0.108870 0.555078 1.045447
v 0.116697 0.555078 1.045447
v -0.111980 -0.021263 1.021263
v -0.108870 0.555078 -1.045239
v -0.119060 1.579574 0.105168
v -0.111980 -0.030071 -0.105692
v -0.114296 1.572134 -1.063476
v 0.111571 1.569593 -1.064914
v 0.113284 -0.021263 1.021263
v 0.116697 0.555078 -1.045239
v 0.113284 -0.030071 -0.105692
v 0.106813 1.577461 0.104158
v 1.032051 1.560558 -0.115264
v 1.031040 1.560424 0.100262
v -1.021263 -0.021263 -0.105692
v -1.021263 -0.021263 0.101110
v 1.029775 0.555078 -0.107553
v 1.029775 0.555078 0.103607
v -0.118132 1.579791 -0.110358
v -0.111980 -0.030071 0.101110
v 0.113284 -0.030071 0.101110
v 0.107741 1.577679 -0.111368
v 1.021263 -0.021263 0.101110
v -1.028012 0.555078 0.103607
v -1.055868 1.578974 0.109049
v 1.021263 -0.021263 -0.105692
v -1.054786 1.579347 -0.106476
v -1.028012 0.555078 -0.107553
v 0.115106 1.580374 -0.246249
v 0.161592 1.736730 -0.189369
v 0.185640 1.543437 0.016198
v 0.137276 1.693632 0.094721
v 0.124613 1.532586 -0.054668
v 0.120727 1.725927 -0.035756
v 0.131749 1.673207 -0.228169
v 0.134766 1.609497 -0.236016
v 0.178682 1.680673 0.094415
v 0.180364 1.615348 0.088953
v 0.162004 1.675614 -0.028836
v 0.207165 1.610961 -0.035013
v 0.295358 1.691810 -0.314694
v 0.298643 1.627697 -0.324470
v 0.371410 1.711554 -0.117867
v 0.367341 1.647209 -0.132309
v 0.590945 1.797011 -0.336839
v 0.590344 1.733275 -0.354844
v 0.545524 1.763617 -0.150584
v 0.540661 1.702328 -0.169964
v 0.774708 1.811629 -0.133122
v 0.767803 1.752348 -0.156799
v 0.594326 1.760112 -0.058250
v 0.588871 1.699691 -0.077922
v 0.778352 1.665775 0.128294
v 0.773250 1.606138 0.115206
v 0.602025 1.735619 0.012403
v 0.597005 1.675203 -0.005737
v 0.450296 1.697455 0.219886
v 0.450814 1.628643 0.211299
v 0.446043 1.706527 0.018136
v 0.443783 1.642090 0.003256
v 0.234239 1.657800 0.107216
v 0.236742 1.589547 0.103761
v 0.261258 1.643197 -0.082379
v 0.265673 1.577287 -0.088825
v 0.100101 1.615326 0.041718
v 0.102503 1.548758 0.041601
v 0.115627 1.617153 -0.138253
v 0.120031 1.552500 -0.142126
v 0.380067 1.710768 0.284022
v 0.380380 1.642633 0.276089
v 0.241311 1.625145 0.406282
v 0.241311 1.693310 0.413573
v 0.536182 1.637134 0.468643
v 0.536182 1.571096 0.459741
v 0.381628 1.554729 0.593993
v 0.381628 1.620821 0.602902
v -0.141606 1.580631 -0.248515
v -0.165295 1.735247 -0.178146
v -0.197783 1.545397 0.015745
v -0.146351 1.689108 0.093990
v -0.142086 1.530293 -0.055219
v -0.144212 1.718663 -0.036255
v -0.162309 1.673497 -0.230606
v -0.162654 1.609787 -0.238442
v -0.189419 1.679502 0.096543
v -0.190251 1.619227 0.091985
v -0.181473 1.668887 -0.029639
v -0.226636 1.607275 -0.035615
v 0.035456 1.630273 -0.206525
v -0.017494 1.701939 -0.136835
v -0.006715 1.518321 -0.017783
v -0.004573 1.662179 0.067043
v -0.012882 1.705093 -0.055071
v -0.009485 1.522927 -0.070298
v -0.000788 1.601513 0.146323
v -0.001085 1.663565 0.149998
v 0.015280 1.645699 -0.204906
v -0.016824 1.674292 -0.170373
v -0.315458 1.688721 -0.321313
v -0.316491 1.625007 -0.329360
v -0.405311 1.687722 -0.120090
v -0.405981 1.626610 -0.129663
v -0.641832 1.849759 -0.361515
v -0.641826 1.785305 -0.390016
v -0.565167 1.772151 -0.167730
v -0.565016 1.715978 -0.199098
v -0.801264 1.825811 -0.117577
v -0.801264 1.783861 -0.166185
v -0.599481 1.754061 -0.117684
v -0.599310 1.701009 -0.152346
v -0.754651 1.633189 0.106848
v -0.754031 1.580667 0.086638
v -0.589230 1.704637 -0.049945
v -0.589176 1.648962 -0.077462
v -0.479634 1.714389 0.313705
v -0.480815 1.653392 0.309844
v -0.447277 1.679643 0.074660
v -0.448003 1.622048 0.066107
v -0.246633 1.664798 0.116126
v -0.247540 1.602093 0.113035
v -0.284107 1.634791 -0.085428
v -0.285942 1.571425 -0.091431
v -0.111570 1.612468 0.041109
v -0.111674 1.548580 0.040976
v -0.144508 1.614686 -0.138528
v -0.144716 1.550638 -0.142948
v -0.413281 1.727586 0.398843
v -0.415497 1.668601 0.399948
v -0.279929 1.647844 0.551203
v -0.277639 1.706956 0.549088
v -0.604874 1.605050 0.700193
v -0.604697 1.543455 0.689409
v -0.450153 1.532660 0.824451
v -0.450320 1.594062 0.835170
v 0.072049 1.719335 -0.163102
v 0.089462 1.530879 -0.000793
v 0.075023 1.627598 -0.220461
v 0.057462 1.673749 -0.199271
v 0.075281 1.605323 -0.226387
v 0.066352 1.677905 0.080882
v 0.053923 1.715510 -0.045414
v 0.057564 1.527757 -0.062483
v 0.089788 1.608431 0.117638
v 0.088799 1.672119 0.122207
v 0.310846 1.633889 0.341186
v 0.310689 1.702039 0.348798
v 0.391186 1.573267 0.450051
v 0.391186 1.639332 0.458957
v -0.091394 1.718593 -0.157490
v -0.102249 1.531859 -0.001019
v -0.073687 1.627743 -0.221674
v -0.089567 1.673894 -0.200489
v -0.053075 1.605452 -0.227520
v -0.075462 1.675643 0.080517
v -0.078547 1.711878 -0.045663
v -0.075786 1.526610 -0.062758
v -0.095520 1.610370 0.119154
v -0.095252 1.671533 0.123271
v -0.347713 1.658222 0.475576
v -0.345460 1.717271 0.473966
v -0.465916 1.550528 0.686582
v -0.466089 1.612027 0.697333
vn -0.0044 -0.0015 -1.0000
vn 0.9999 0.0134 0.0043
vn 0.0044 0.0015 1.0000
vn -0.9999 -0.0132 -0.0043
vn -0.0000 -1.0000 -0.0000
vn 0.0091 1.0000 0.0010
vn -0.0000 -0.0000 -1.0000
vn 1.0000 -0.0000 -0.0000
vn -0.0000 -0.0000 1.0000
vn -1.0000 -0.0000 -0.0000
vn 0.0043 0.0026 1.0000
vn -0.0000 1.0000 -0.0000
vn -0.0043 -0.0026 -1.0000
vn 0.0044 0.0016 1.0000
vn 0.0092 1.0000 0.0010
vn 0.9996 0.0142 -0.0244
vn -1.0000 0.0055 -0.0017
vn 0.0014 -0.0033 -1.0000
vn -0.0018 -0.0044 1.0000
vn -1.0000 0.0055 0.0017
vn 0.0019 -0.0044 1.0000
vn -0.0042 0.0048 -1.0000
vn 0.9999 0.0052 0.0085
vn -0.0014 -0.0033 -1.0000
vn 0.0042 -0.0047 1.0000
vn 1.0000 -0.0064 0.0015
vn 0.0103 0.9999 -0.0082
vn -0.0000 -1.0000 0.0096
vn -0.9998 -0.0213 -0.0017
vn 0.0097 -1.0000 -0.0000
vn 0.0098 0.9999 0.0102
vn -0.0097 -1.0000 -0.0000
vn -0.0000 -1.0000 -0.0096
vn 0.0185 0.9998 0.0009
vn 0.0094 1.0000 0.0010
vn 0.0011 -0.0260 0.9997
vn -0.0021 -0.0270 -0.9996
vn -0.0006 1.0000 0.0014
vn 0.0031 0.0012 -1.0000
vn -0.9999 0.0129 -0.0042
vn -1.0000 0.0058 -0.0042
vn 0.9999 -0.0130 0.0042
vn 1.0000 -0.0057 0.0042
vn -0.0063 -0.0055 1.0000
vn -0.9996 -0.0145 0.0261
vn 0.0090 -0.0078 -0.9999
vn 1.0000 -0.0060 -0.0019
vn -0.0058 0.0034 1.0000
vn -0.9999 -0.0055 -0.0089
vn 1.0000 -0.0060 0.0019
vn -0.3068 0.6207 -0.7215
vn 0.6074 0.7944 0.0057
vn 0.9953 0.0910 0.0321
vn 0.7365 -0.6366 -0.2288
vn 0.1625 -0.9867 -0.0057
vn 0.9120 -0.3891 -0.1298
vn 0.9412 0.3369 0.0257
vn -0.1736 0.3544 -0.9188
vn -0.2842 0.1949 -0.9387
vn -0.7297 -0.0590 0.6813
vn -0.1435 0.9875 0.0649
vn -0.2288 0.9203 0.3174
vn 0.1129 -0.9925 -0.0472
vn 0.1207 -0.8640 0.4889
vn -0.1760 0.9843 -0.0086
vn -0.2141 -0.8111 -0.5444
vn 0.3204 -0.9462 -0.0449
vn -0.1514 0.9884 -0.0146
vn 0.4501 0.0006 0.8930
vn -0.4775 0.0969 -0.8733
vn -0.2128 0.9683 0.1308
vn -0.1604 0.2064 -0.9652
vn -0.3108 0.9487 0.0587
vn 0.2700 -0.2681 0.9248
vn 0.0113 -0.8956 -0.4446
vn -0.8836 -0.0735 0.4625
vn 0.2200 -0.9685 -0.1163
vn 0.7237 0.1815 -0.6659
vn -0.0287 -0.9732 -0.2281
vn 0.9948 -0.0814 -0.0615
vn -0.0068 0.8896 0.4566
vn -0.9910 0.0465 0.1258
vn -0.2350 0.9716 -0.0274
vn 0.2601 -0.1697 0.9505
vn 0.0484 0.9755 0.2148
vn -0.0980 0.2598 -0.9607
vn 0.2091 -0.9767 0.0479
vn 0.4205 0.1533 -0.8943
vn 0.2509 -0.9679 0.0108
vn -0.4411 -0.0882 0.8931
vn -0.9946 -0.0488 -0.0911
vn -0.4193 -0.0393 0.9070
vn -0.2135 0.9752 -0.0583
vn 0.3345 0.0967 -0.9374
vn -0.8127 -0.0698 0.5785
vn -0.1148 0.9933 -0.0121
vn 0.1075 -0.9941 0.0175
vn 0.6756 0.0836 -0.7325
vn 0.9978 -0.0088 0.0651
vn -0.0661 -0.9283 -0.3660
vn 0.2694 0.9366 0.2241
vn 0.7760 0.0803 -0.6256
vn 0.3135 0.6418 -0.6999
vn -0.5914 0.8056 0.0362
vn -0.9582 0.2850 0.0230
vn -0.7219 -0.6607 -0.2056
vn -0.0842 -0.9959 -0.0344
vn -0.8972 -0.4409 -0.0272
vn -0.9351 0.3465 0.0740
vn 0.1066 0.3717 -0.9222
vn 0.2380 0.2794 -0.9302
vn 0.8214 -0.0209 0.5700
vn 0.1257 0.9913 0.0378
vn 0.1878 0.9383 0.2905
vn -0.1083 -0.9940 -0.0169
vn -0.1282 -0.8596 0.4947
vn 0.1654 0.9862 0.0032
vn 0.1596 -0.8552 -0.4931
vn -0.4155 -0.8939 -0.1685
vn 0.0738 0.9967 0.0339
vn -0.4128 0.0388 0.9100
vn 0.5140 0.1006 -0.8519
vn 0.2729 0.9107 0.3100
vn 0.2724 0.2618 -0.9259
vn 0.4147 0.8897 0.1909
vn -0.4651 -0.2899 0.8364
vn -0.2621 -0.7831 -0.5640
vn 0.8246 -0.2909 0.4851
vn -0.3005 -0.9146 -0.2706
vn -0.7771 0.3693 -0.5097
vn 0.1323 -0.9909 -0.0257
vn -0.9887 -0.0923 0.1178
vn 0.2518 0.7688 0.5879
vn 0.9932 0.0592 -0.0999
vn 0.1029 0.9839 -0.1458
vn -0.5793 -0.1663 0.7980
vn -0.1476 0.9889 0.0180
vn 0.6921 0.2153 -0.6890
vn -0.2112 -0.9712 0.1104
vn -0.6796 0.1018 -0.7265
vn -0.1299 -0.9819 0.1375
vn 0.6380 -0.0539 0.7681
vn 0.9839 0.0040 -0.1785
vn 0.4690 -0.0262 0.8828
vn 0.2057 0.9725 -0.1089
vn -0.3374 0.0821 -0.9378
vn 0.8606 -0.0513 0.5067
vn 0.1290 0.9913 -0.0272
vn -0.1434 -0.9888 0.0417
vn -0.8019 0.0378 -0.5962
vn -0.9936 -0.0221 0.1108
vn 0.1126 -0.9256 -0.3615
vn -0.2836 0.9297 0.2348
vn -0.8498 0.0564 -0.5241
vn 0.0678 0.9252 0.3735
vn -0.2607 -0.9397 -0.2213
vn -0.0681 -0.1333 0.9887
vn 0.1002 -0.9950 0.0050
vn -0.1200 0.9926 -0.0211
vn -0.2104 -0.9204 -0.3294
vn -0.1735 0.9847 0.0154
vn 0.1198 -0.7806 0.6134
vn 0.1007 -0.9943 0.0342
vn -0.2249 0.9334 0.2795
vn -0.0835 0.8508 0.5187
vn -0.2124 0.4894 -0.8458
vn -0.3317 0.0090 -0.9434
vn -0.2942 0.6877 -0.6637
vn -0.1048 0.9335 0.3429
vn 0.3060 -0.9209 -0.2416
vn 0.0289 -0.1722 0.9846
vn -0.1351 -0.9904 0.0282
vn 0.1381 0.9895 -0.0419
vn 0.1556 -0.9324 -0.3263
vn 0.1598 0.9847 0.0691
vn -0.1253 -0.7795 0.6137
vn -0.0911 -0.9912 0.0956
vn 0.1821 0.9526 0.2437
vn 0.0868 0.9137 0.3970
vn 0.1430 0.6489 -0.7473
vn 0.1230 0.3191 -0.9397
vn 0.3022 0.6976 -0.6496
vt 0.289063 0.683594
vt 0.289063 0.683594
vt 0.039063 0.921875
vt 0.289063 0.683594
vt 0.425781 0.660156
vt 0.289063 0.683594
vt 0.039063 0.921875
vt 0.039063 0.921875
vt 0.425781 0.660156
vt 0.289063 0.683594
vt 0.425781 0.660156
vt 0.425781 0.660156
vt 0.289063 0.683594
vt 0.425781 0.660156
vt 0.461374 0.680370
vt 0.461374 0.680370
vt 0.461374 0.680370
vt 0.427854 0.675885
vt 0.461374 0.680370
vt 0.427854 0.663484
vt 0.461374 0.680370
vt 0.461374 0.680370
vt 0.461374 0.680370
vt 0.461374 0.680370
s 0
usemtl Material.001
f 27/1/1 25/1/1 4/1/1 10/1/1
f 38/1/2 34/1/2 8/1/2 11/1/2
f 21/1/3 20/2/3 6/1/3 12/1/3
f 47/1/4 46/1/4 2/1/4 9/1/4
f 42/3/5 19/3/5 5/3/5 35/3/5
f 55/1/6 18/1/6 2/1/6 46/1/6
f 48/4/5 47/1/5 9/1/5 16/1/5
f 24/1/5 21/1/5 12/1/5 15/1/5
f 39/5/5 38/5/5 11/5/5 14/5/5
f 28/6/5 27/1/5 10/1/5 13/1/5
f 29/3/7 28/7/7 13/3/7 3/3/7
f 33/3/8 39/3/8 14/3/8 7/3/8
f 19/3/9 24/3/9 15/3/9 5/3/9
f 52/3/10 48/8/10 16/3/10 1/3/10
f 36/9/11 41/5/11 65/5/11 85/9/11
f 1/3/7 16/3/7 23/7/7 17/3/7
f 16/1/5 9/1/5 22/1/5 23/6/5
f 29/5/8 50/5/8 71/5/8 57/5/8
f 21/5/12 24/5/12 61/5/12
f 55/5/13 46/5/13 87/5/13 79/5/13
f 40/1/7 37/1/7 84/1/7
f 9/1/1 2/1/1 18/1/1 22/1/1
f 11/1/14 8/1/14 30/1/14 31/1/14
f 33/3/5 7/3/5 26/3/5 43/3/5
f 51/10/15 4/1/15 25/1/15 56/1/15
f 14/5/5 11/5/5 31/5/5 32/5/5
f 7/3/9 14/3/9 32/3/9 26/3/9
f 31/5/16 30/5/16 59/5/16 62/5/16
f 23/11/5 22/5/5 64/11/5
f 47/1/12 48/4/12 88/1/12
f 8/1/15 34/1/15 44/1/15 30/1/15
f 38/5/12 39/5/12 78/5/12
f 17/5/17 23/11/17 64/11/17 58/5/17
f 48/12/18 52/5/18 75/5/18 88/12/18
f 5/3/10 15/3/10 40/3/10 35/3/10
f 39/5/19 33/5/19 83/5/19 78/5/19
f 24/5/20 19/5/20 63/5/20 61/5/20
f 15/1/5 12/1/5 37/1/5 40/1/5
f 20/2/6 41/1/6 36/13/6 6/1/6
f 35/5/21 40/5/21 84/5/21 76/5/21
f 12/1/4 6/1/4 36/13/4 37/1/4
f 51/9/22 56/5/22 82/5/22 73/9/22
f 10/1/2 4/1/2 51/10/2 53/10/2
f 17/3/5 49/3/5 52/3/5 1/3/5
f 13/1/5 10/1/5 53/10/5 54/1/5
f 3/3/8 13/3/8 54/3/8 45/3/8
f 50/5/7 45/5/7 86/5/7 71/5/7
f 3/3/5 45/3/5 50/3/5 29/3/5
f 33/5/9 43/5/9 81/5/9 83/5/9
f 25/5/23 27/5/23 70/5/23 68/5/23
f 45/5/24 54/5/24 77/5/24 86/5/24
f 44/5/25 34/5/25 74/5/25 72/5/25
f 27/5/12 28/11/12 70/5/12
f 54/1/12 53/10/12 77/1/12
f 86/5/26 77/9/26 73/9/26 74/5/26 78/5/26 83/5/26
f 82/5/27 68/5/27 67/5/27 79/5/27
f 81/5/28 69/5/28 63/5/28 80/5/28
f 84/5/29 85/9/29 87/5/29 88/12/29 75/5/29 76/5/29
f 86/5/30 83/5/30 81/5/30 71/5/30
f 71/5/5 81/5/5 80/5/5 66/5/5
f 59/5/31 72/5/31 65/5/31 60/14/31
f 66/5/32 80/5/32 76/5/32 75/5/32
f 57/5/33 71/5/33 66/5/33 58/5/33
f 74/5/34 73/9/34 82/5/34 72/5/34
f 72/5/35 82/5/35 79/5/35 65/5/35
f 62/5/36 59/5/36 60/14/36 61/5/36 63/5/36 69/5/36
f 64/5/37 67/5/37 68/5/37 70/11/37 57/5/37 58/5/37
f 65/5/38 79/5/38 87/5/38 85/9/38
f 46/5/39 47/5/39 88/5/39 87/5/39
f 41/5/40 20/14/40 60/14/40 65/5/40
f 18/5/41 55/5/41 79/5/41 67/5/41
f 30/5/42 44/5/42 72/5/42 59/5/42
f 42/5/9 35/5/9 76/5/9 80/5/9
f 49/5/10 17/5/10 58/5/10 66/5/10
f 56/5/43 25/5/43 68/5/43 82/5/43
f 32/5/12 31/5/12 62/5/12
f 37/5/44 36/9/44 85/9/44 84/5/44
f 20/14/45 21/5/45 61/5/45 60/14/45
f 19/5/10 42/5/10 80/5/10 63/5/10
f 53/9/46 51/9/46 73/9/46 77/9/46
f 26/5/47 32/5/47 62/5/47 69/5/47
f 34/5/48 38/5/48 78/5/48 74/5/48
f 22/5/49 18/5/49 67/5/49 64/5/49
f 43/5/8 26/5/8 69/5/8 81/5/8
f 52/5/7 49/5/7 66/5/7 75/5/7
f 28/11/50 29/5/50 57/5/50 70/11/50
f 198/15/51 195/15/51 90/16/51 95/16/51
f 99/16/52 94/16/52 92/16/52 97/16/52
f 95/16/53 90/16/53 94/16/53 99/16/53
f 89/16/54 96/16/54 100/16/54 93/16/54
f 100/16/55 96/16/55 102/16/55 104/16/55
f 93/16/56 100/16/56 98/16/56 91/16/56
f 100/16/57 99/16/57 97/16/57 98/16/57
f 199/17/58 197/16/58 96/16/58 89/16/58
f 197/16/59 198/15/59 95/16/59 96/16/59
f 156/18/60 155/18/60 131/18/60 132/18/60
f 204/15/61 200/17/61 152/16/61 156/16/61
f 200/17/62 201/16/62 153/16/62 152/16/62
f 202/15/63 196/16/63 151/16/63 154/16/63
f 196/16/64 203/19/64 155/16/64 151/16/64
f 201/16/65 195/15/65 150/16/65 153/16/65
f 199/17/66 202/15/66 154/16/66 149/16/66
f 104/16/67 102/16/67 106/16/67 108/16/67
f 95/16/68 99/16/68 103/16/68 101/16/68
f 99/16/69 100/16/69 104/16/69 103/16/69
f 96/16/70 95/16/70 101/16/70 102/16/70
f 105/16/71 107/16/71 111/16/71 109/16/71
f 102/16/72 101/16/72 105/16/72 106/16/72
f 101/16/73 103/16/73 107/16/73 105/16/73
f 103/16/74 104/16/74 108/16/74 107/16/74
f 112/16/75 110/16/75 114/16/75 116/16/75
f 107/16/76 108/16/76 112/16/76 111/16/76
f 108/16/77 106/16/77 110/16/77 112/16/77
f 106/16/78 105/16/78 109/16/78 110/16/78
f 116/16/79 114/16/79 118/16/79 120/16/79
f 110/16/80 109/16/80 113/16/80 114/16/80
f 109/16/81 111/16/81 115/16/81 113/16/81
f 111/16/82 112/16/82 116/16/82 115/16/82
f 117/16/83 119/16/83 123/16/83 121/16/83
f 114/16/84 113/16/84 117/16/84 118/16/84
f 113/16/85 115/16/85 119/16/85 117/16/85
f 115/16/86 116/16/86 120/16/86 119/16/86
f 124/16/87 122/16/87 126/16/87 128/16/87
f 119/16/88 120/16/88 124/16/88 123/16/88
f 120/16/89 118/16/89 122/16/89 124/16/89
f 118/16/90 117/16/90 121/16/90 122/16/90
f 126/16/91 125/16/91 127/16/91 128/16/91
f 122/16/92 121/16/92 125/16/92 126/16/92
f 121/16/93 123/16/93 127/16/93 125/16/93
f 123/16/94 124/16/94 128/16/94 127/16/94
f 132/20/95 131/20/95 135/20/95 136/20/95
f 204/15/96 156/16/96 132/16/96 206/21/96
f 203/19/97 98/16/97 130/16/97 205/22/97
f 98/16/98 97/16/98 129/16/98 130/16/98
f 207/15/99 208/17/99 136/16/99 135/16/99
f 205/22/100 130/16/100 134/16/100 207/15/100
f 206/21/101 132/16/101 136/16/101 208/17/101
f 130/16/102 129/16/102 133/16/102 134/16/102
f 212/17/103 143/16/103 138/16/103 209/19/103
f 147/16/104 145/16/104 140/16/104 142/16/104
f 143/16/105 147/16/105 142/16/105 138/16/105
f 137/16/106 141/16/106 148/16/106 144/16/106
f 148/16/107 162/16/107 160/16/107 144/16/107
f 141/16/108 139/16/108 146/16/108 148/16/108
f 148/16/109 146/16/109 145/16/109 147/16/109
f 213/16/110 137/16/110 144/16/110 211/23/110
f 211/23/111 144/16/111 143/16/111 212/17/111
f 156/18/112 190/18/112 189/18/112 155/18/112
f 218/19/113 156/16/113 152/16/113 214/23/113
f 214/23/114 152/16/114 153/16/114 215/19/114
f 216/23/115 154/16/115 151/16/115 210/16/115
f 210/16/116 151/16/116 155/16/116 217/16/116
f 215/19/117 153/16/117 150/16/117 209/19/117
f 213/16/118 149/16/118 154/16/118 216/23/118
f 162/16/119 166/16/119 164/16/119 160/16/119
f 143/16/120 159/16/120 161/16/120 147/16/120
f 147/16/121 161/16/121 162/16/121 148/16/121
f 144/16/122 160/16/122 159/16/122 143/16/122
f 163/16/123 167/16/123 169/16/123 165/16/123
f 160/16/124 164/16/124 163/16/124 159/16/124
f 159/16/125 163/16/125 165/16/125 161/16/125
f 161/16/126 165/16/126 166/16/126 162/16/126
f 170/16/127 174/16/127 172/16/127 168/16/127
f 165/16/128 169/16/128 170/16/128 166/16/128
f 166/16/129 170/16/129 168/16/129 164/16/129
f 164/16/130 168/16/130 167/16/130 163/16/130
f 174/16/131 178/16/131 176/16/131 172/16/131
f 168/16/132 172/16/132 171/16/132 167/16/132
f 167/16/133 171/16/133 173/16/133 169/16/133
f 169/16/134 173/16/134 174/16/134 170/16/134
f 175/16/135 179/16/135 181/16/135 177/16/135
f 172/16/136 176/16/136 175/16/136 171/16/136
f 171/16/137 175/16/137 177/16/137 173/16/137
f 173/16/138 177/16/138 178/16/138 174/16/138
f 182/16/139 186/16/139 184/16/139 180/16/139
f 177/16/140 181/16/140 182/16/140 178/16/140
f 178/16/141 182/16/141 180/16/141 176/16/141
f 176/16/142 180/16/142 179/16/142 175/16/142
f 184/16/143 186/16/143 185/16/143 183/16/143
f 180/16/144 184/16/144 183/16/144 179/16/144
f 179/16/145 183/16/145 185/16/145 181/16/145
f 181/16/146 185/16/146 186/16/146 182/16/146
f 190/20/147 194/20/147 193/20/147 189/20/147
f 218/19/148 220/15/148 190/16/148 156/16/148
f 217/16/149 219/24/149 188/16/149 146/16/149
f 146/16/150 188/16/150 187/16/150 145/16/150
f 221/16/151 193/16/151 194/16/151 222/17/151
f 219/24/152 221/16/152 192/16/152 188/16/152
f 220/15/153 222/17/153 194/16/153 190/16/153
f 188/16/154 192/16/154 191/16/154 187/16/154
f 129/16/155 206/21/155 208/17/155 133/16/155
f 131/16/156 205/22/156 207/15/156 135/16/156
f 134/16/157 133/16/157 208/17/157 207/15/157
f 155/16/158 203/19/158 205/22/158 131/16/158
f 97/16/159 204/15/159 206/21/159 129/16/159
f 89/16/160 93/16/160 202/15/160 199/17/160
f 94/16/161 90/16/161 195/15/161 201/16/161
f 91/16/162 98/16/162 203/19/162 196/16/162
f 93/16/163 91/16/163 196/16/163 202/15/163
f 92/16/164 94/16/164 201/16/164 200/17/164
f 97/16/165 92/16/165 200/17/165 204/15/165
f 157/16/166 158/16/166 198/15/166 197/16/166
f 149/16/167 157/16/167 197/16/167 199/17/167
f 158/16/168 150/16/168 195/15/168 198/15/168
f 187/16/169 191/16/169 222/17/169 220/15/169
f 189/16/170 193/16/170 221/16/170 219/24/170
f 192/16/171 221/16/171 222/17/171 191/16/171
f 155/16/172 189/16/172 219/24/172 217/16/172
f 145/16/173 187/16/173 220/15/173 218/19/173
f 137/16/174 213/16/174 216/23/174 141/16/174
f 142/16/175 215/19/175 209/19/175 138/16/175
f 139/16/176 210/16/176 217/16/176 146/16/176
f 141/16/177 216/23/177 210/16/177 139/16/177
f 140/16/178 214/23/178 215/19/178 142/16/178
f 145/16/179 218/19/179 214/23/179 140/16/179
f 157/16/180 211/23/180 212/17/180 158/16/180
f 149/16/181 213/16/181 211/23/181 157/16/181
f 158/16/182 212/17/182 209/19/182 150/16/182
